<svg version="1.1" xmlns="http://www.w3.org/2000/svg" xmlns:xlink="http://www.w3.org/1999/xlink" style="" xml:space="preserve" width="512.001" height="512.001"><rect id="backgroundrect" width="100%" height="100%" x="0" y="0" fill="none" stroke="none"/>




















<g class="currentLayer" style=""><title>Layer 1</title><path style="fill:#A7A9AC;" d="M401.611,479.455l-98.776-195.929c-4.494-8.914-2.335-19.744,5.23-26.256l102.516-88.213  c11.88-10.221,30.39-4.865,34.962,10.136l65.511,214.892c2.341,7.68,0.258,16.026-5.42,21.704l-69.25,69.25  C425.943,495.478,408.288,492.698,401.611,479.455z" id="svg_1" class=""/><path style="" d="M228.473,209.163L32.545,110.389c-13.195-6.651-16.05-24.306-5.584-34.772l69.25-69.25  c5.676-5.678,14.023-7.763,21.703-5.421l214.892,65.511c14.991,4.571,20.364,23.075,10.136,34.962l-88.213,102.516  C248.219,211.5,237.388,213.659,228.473,209.163z" id="svg_2" class="" fill="#242424" fill-opacity="1"/><path style="fill:#D1D3D4;" d="M186.499,383.618l-19.477-38.64l-38.64-19.476c-12.617-6.36-15.889-22.891-6.692-33.58  L343.981,33.568c0.184-0.214,0.374-0.424,0.566-0.632c36.703-39.443,98.744-40.702,136.981-2.466  c37.626,37.623,37.563,99.331-2.335,136.86c-0.614,0.58-258.474,222.427-259.114,222.979  C209.443,399.459,192.897,396.314,186.499,383.618z" id="svg_3" class=""/><g id="svg_4" class="" fill="#242424" fill-opacity="1">
	<path style="" d="M481.00543147325516,30.47100067138672 c-0.0010000000474974513,-0.0010000000474974513 -0.003000000026077032,-0.0010000000474974513 -0.004000000189989805,-0.003000000026077032 L166.49343806505203,344.9750061035156 l0.004000000189989805,0.003000000026077032 l19.476999282836914,38.63999938964844 c6.39900016784668,12.696000099182129 22.945999145507812,15.840999603271484 33.58000183105469,6.691999912261963 c0.6399999856948853,-0.5509999990463257 258.5,-222.3990020751953 259.114013671875,-222.97900390625 C518.5894158482552,129.77999877929688 518.6094353795052,68.0770034790039 481.00543147325516,30.47100067138672 z" id="svg_5" fill="#242424" fill-opacity="1"/>
	<path style="" d="M163.2734368443489,500.052001953125 L112.37644129991531,399.1000061035156 L11.42343932390213,348.2030029296875 c-13.194999694824219,-6.6529998779296875 -16.049999237060547,-24.305999755859375 -5.584000110626221,-34.77199935913086 l54.12099838256836,-54.12099838256836 c6.632999897003174,-6.633999824523926 16.77400016784668,-8.26200008392334 25.150999069213867,-4.038000106811523 l107.34700012207031,54.12099838256836 c4.1570000648498535,2.0950000286102295 7.5289998054504395,5.4679999351501465 9.62399959564209,9.62399959564209 l54.12099838256836,107.34600067138672 c4.224999904632568,8.376999855041504 2.5959999561309814,18.51799964904785 -4.038000106811523,25.150999069213867 l-54.12200164794922,54.12200164794922 C187.60444575548172,516.0770263671875 169.94944697618484,513.2949829101562 163.2734368443489,500.052001953125 z" id="svg_6" fill="#242424" fill-opacity="1"/>
</g><path style="fill:#A7A9AC;" d="M256.729,426.363l-54.121-107.346c-1.047-2.078-2.414-3.961-4.039-5.585L112.901,399.1  l50.897,100.952c6.675,13.239,24.328,16.028,34.771,5.584l54.122-54.122C259.324,444.88,260.952,434.738,256.729,426.363z" id="svg_7"/><g id="svg_8">
</g><g id="svg_9">
</g><g id="svg_10">
</g><g id="svg_11">
</g><g id="svg_12">
</g><g id="svg_13">
</g><g id="svg_14">
</g><g id="svg_15">
</g><g id="svg_16">
</g><g id="svg_17">
</g><g id="svg_18">
</g><g id="svg_19">
</g><g id="svg_20">
</g><g id="svg_21">
</g><g id="svg_22">
</g></g></svg>