<svg id="visual" viewBox="0 0 960 540" width="960" height="540" xmlns="http://www.w3.org/2000/svg" xmlns:xlink="http://www.w3.org/1999/xlink" version="1.1"><path d="M0 410L22.8 418.2C45.7 426.3 91.3 442.7 137 445.8C182.7 449 228.3 439 274 427.5C319.7 416 365.3 403 411.2 395.5C457 388 503 386 548.8 392.2C594.7 398.3 640.3 412.7 686 427.2C731.7 441.7 777.3 456.3 823 458.8C868.7 461.3 914.3 451.7 937.2 446.8L960 442L960 541L937.2 541C914.3 541 868.7 541 823 541C777.3 541 731.7 541 686 541C640.3 541 594.7 541 548.8 541C503 541 457 541 411.2 541C365.3 541 319.7 541 274 541C228.3 541 182.7 541 137 541C91.3 541 45.7 541 22.8 541L0 541Z" fill="#21d4fd" stroke-linecap="round" stroke-linejoin="miter"></path></svg>