<svg id="visual" viewBox="0 0 960 540" width="960" height="540" xmlns="http://www.w3.org/2000/svg" xmlns:xlink="http://www.w3.org/1999/xlink" version="1.1"><path d="M0 290L10.7 292.3C21.3 294.7 42.7 299.3 64 308.8C85.3 318.3 106.7 332.7 128 338.7C149.3 344.7 170.7 342.3 192 334.3C213.3 326.3 234.7 312.7 256 305C277.3 297.3 298.7 295.7 320 292.5C341.3 289.3 362.7 284.7 384 289.2C405.3 293.7 426.7 307.3 448 316.5C469.3 325.7 490.7 330.3 512 331.7C533.3 333 554.7 331 576 333.2C597.3 335.3 618.7 341.7 640 342.2C661.3 342.7 682.7 337.3 704 326.7C725.3 316 746.7 300 768 301.8C789.3 303.7 810.7 323.3 832 327.2C853.3 331 874.7 319 896 314C917.3 309 938.7 311 949.3 312L960 313L960 541L949.3 541C938.7 541 917.3 541 896 541C874.7 541 853.3 541 832 541C810.7 541 789.3 541 768 541C746.7 541 725.3 541 704 541C682.7 541 661.3 541 640 541C618.7 541 597.3 541 576 541C554.7 541 533.3 541 512 541C490.7 541 469.3 541 448 541C426.7 541 405.3 541 384 541C362.7 541 341.3 541 320 541C298.7 541 277.3 541 256 541C234.7 541 213.3 541 192 541C170.7 541 149.3 541 128 541C106.7 541 85.3 541 64 541C42.7 541 21.3 541 10.7 541L0 541Z" fill="#79afff" stroke-linecap="round" stroke-linejoin="miter"></path></svg>